<svg xmlns="http://www.w3.org/2000/svg" xmlns:xlink="http://www.w3.org/1999/xlink" width="277" zoomAndPan="magnify" viewBox="0 0 207.75 207.75" height="277" preserveAspectRatio="xMidYMid meet" version="1.0"><defs><clipPath id="eb99976c08"><path d="M 0 0 L 207.5 0 L 207.5 207.5 L 0 207.5 Z M 0 0 " clip-rule="nonzero"/></clipPath><clipPath id="8dec072aec"><path d="M 0 0 L 207.203125 0 L 207.203125 207.203125 L 0 207.203125 Z M 0 0 " clip-rule="nonzero"/></clipPath><clipPath id="221ffca167"><path d="M 103.601562 0 C 46.382812 0 0 46.382812 0 103.601562 C 0 160.816406 46.382812 207.203125 103.601562 207.203125 C 160.816406 207.203125 207.203125 160.816406 207.203125 103.601562 C 207.203125 46.382812 160.816406 0 103.601562 0 Z M 103.601562 0 " clip-rule="nonzero"/></clipPath><clipPath id="5322a9cd21"><path d="M 0 0 L 207.203125 0 L 207.203125 207.203125 L 0 207.203125 Z M 0 0 " clip-rule="nonzero"/></clipPath><clipPath id="7ce8abd67d"><path d="M 103.601562 0 C 46.382812 0 0 46.382812 0 103.601562 C 0 160.816406 46.382812 207.203125 103.601562 207.203125 C 160.816406 207.203125 207.203125 160.816406 207.203125 103.601562 C 207.203125 46.382812 160.816406 0 103.601562 0 Z M 103.601562 0 " clip-rule="nonzero"/></clipPath><clipPath id="b3d9a774e2"><rect x="0" width="208" y="0" height="208"/></clipPath><clipPath id="d8ead1857d"><path d="M 17.050781 17 L 190.152344 17 L 190.152344 190.828125 L 17.050781 190.828125 Z M 17.050781 17 " clip-rule="nonzero"/></clipPath><clipPath id="edfdbee6e8"><path d="M 103.605469 179.160156 C 100.300781 179.160156 97.046875 178.949219 93.851562 178.535156 C 94.316406 175.949219 94.558594 173.308594 94.558594 170.652344 C 94.558594 153.03125 80.226562 138.699219 62.609375 138.699219 C 54.753906 138.699219 47.304688 141.582031 41.53125 146.644531 C 33.03125 134.425781 28.046875 119.585938 28.046875 103.613281 C 28.046875 62.960938 60.324219 29.707031 100.601562 28.121094 C 95.902344 30.472656 91.507812 33.585938 87.59375 37.5 C 67.996094 57.097656 67.996094 88.988281 87.59375 108.589844 C 95.792969 116.785156 106.3125 121.800781 117.675781 123.023438 L 117.675781 136.335938 C 117.675781 138.558594 119.011719 140.558594 121.070312 141.410156 C 121.75 141.691406 122.46875 141.824219 123.175781 141.824219 C 124.609375 141.824219 126.003906 141.265625 127.066406 140.214844 L 158.695312 108.589844 C 168.113281 99.167969 172.996094 86.90625 173.359375 74.535156 C 177.109375 83.492188 179.183594 93.316406 179.183594 103.613281 C 179.183594 145.28125 145.289062 179.171875 103.625 179.171875 M 48.445312 155.1875 C 52.265625 151.679688 57.300781 149.675781 62.597656 149.675781 C 74.152344 149.675781 83.5625 159.078125 83.5625 170.640625 C 83.5625 172.5625 83.398438 174.453125 83.074219 176.320312 C 69.652344 172.53125 57.734375 165.101562 48.445312 155.1875 M 127.035156 113.90625 C 126.003906 112.875 124.609375 112.296875 123.152344 112.296875 C 123.132812 112.296875 123.132812 112.296875 123.125 112.296875 C 112.632812 112.296875 102.765625 108.214844 95.355469 100.796875 C 80.042969 85.480469 80.042969 60.566406 95.355469 45.253906 C 108.246094 32.363281 127.933594 30.324219 142.984375 39.136719 C 143.792969 39.632812 144.59375 40.148438 145.382812 40.671875 C 147.324219 42.007812 149.171875 43.535156 150.902344 45.253906 C 166.214844 60.566406 166.214844 85.480469 150.902344 100.796875 L 128.652344 123.042969 L 128.652344 117.796875 C 128.652344 116.339844 128.078125 114.9375 127.046875 113.90625 M 151.597656 31.605469 C 150.597656 30.917969 149.585938 30.261719 148.546875 29.65625 C 135.433594 21.660156 120.050781 17.050781 103.605469 17.050781 C 55.875 17.050781 17.050781 55.875 17.050781 103.605469 C 17.050781 151.335938 55.875 190.183594 103.605469 190.183594 C 151.335938 190.183594 190.148438 151.335938 190.148438 103.605469 C 190.148438 73.625 174.824219 47.152344 151.597656 31.617188 " clip-rule="nonzero"/></clipPath><clipPath id="b66524962c"><path d="M 0.0507812 0.0195312 L 173.152344 0.0195312 L 173.152344 173.332031 L 0.0507812 173.332031 Z M 0.0507812 0.0195312 " clip-rule="nonzero"/></clipPath><clipPath id="dda031ef47"><path d="M 86.605469 162.160156 C 83.300781 162.160156 80.046875 161.949219 76.851562 161.535156 C 77.316406 158.949219 77.558594 156.308594 77.558594 153.652344 C 77.558594 136.03125 63.226562 121.699219 45.609375 121.699219 C 37.753906 121.699219 30.304688 124.582031 24.53125 129.644531 C 16.03125 117.425781 11.046875 102.585938 11.046875 86.613281 C 11.046875 45.960938 43.324219 12.707031 83.601562 11.121094 C 78.902344 13.472656 74.507812 16.585938 70.59375 20.5 C 50.996094 40.097656 50.996094 71.988281 70.59375 91.589844 C 78.792969 99.785156 89.3125 104.800781 100.675781 106.023438 L 100.675781 119.335938 C 100.675781 121.558594 102.011719 123.558594 104.070312 124.410156 C 104.75 124.691406 105.46875 124.824219 106.175781 124.824219 C 107.609375 124.824219 109.003906 124.265625 110.066406 123.214844 L 141.695312 91.589844 C 151.113281 82.167969 155.996094 69.90625 156.359375 57.535156 C 160.109375 66.492188 162.183594 76.316406 162.183594 86.613281 C 162.183594 128.28125 128.289062 162.171875 86.625 162.171875 M 31.445312 138.1875 C 35.265625 134.679688 40.300781 132.675781 45.597656 132.675781 C 57.152344 132.675781 66.5625 142.078125 66.5625 153.640625 C 66.5625 155.5625 66.398438 157.453125 66.074219 159.320312 C 52.652344 155.53125 40.734375 148.101562 31.445312 138.1875 M 110.035156 96.90625 C 109.003906 95.875 107.609375 95.296875 106.152344 95.296875 C 106.132812 95.296875 106.132812 95.296875 106.125 95.296875 C 95.632812 95.296875 85.765625 91.214844 78.355469 83.796875 C 63.042969 68.480469 63.042969 43.566406 78.355469 28.253906 C 91.246094 15.363281 110.933594 13.324219 125.984375 22.136719 C 126.792969 22.632812 127.59375 23.148438 128.382812 23.671875 C 130.324219 25.007812 132.171875 26.535156 133.902344 28.253906 C 149.214844 43.566406 149.214844 68.480469 133.902344 83.796875 L 111.652344 106.042969 L 111.652344 100.796875 C 111.652344 99.339844 111.078125 97.9375 110.046875 96.90625 M 134.597656 14.605469 C 133.597656 13.917969 132.585938 13.261719 131.546875 12.65625 C 118.433594 4.660156 103.050781 0.0507812 86.605469 0.0507812 C 38.875 0.0507812 0.0507812 38.875 0.0507812 86.605469 C 0.0507812 134.335938 38.875 173.183594 86.605469 173.183594 C 134.335938 173.183594 173.148438 134.335938 173.148438 86.605469 C 173.148438 56.625 157.824219 30.152344 134.597656 14.617188 " clip-rule="nonzero"/></clipPath><clipPath id="13315974bd"><rect x="0" width="174" y="0" height="174"/></clipPath><clipPath id="e55ceb9c61"><rect x="0" width="208" y="0" height="208"/></clipPath></defs><g clip-path="url(#eb99976c08)"><g transform="matrix(1, 0, 0, 1, 0, -0.000000000000017725)"><g clip-path="url(#e55ceb9c61)"><g clip-path="url(#8dec072aec)"><g clip-path="url(#221ffca167)"><g transform="matrix(1, 0, 0, 1, 0, -0.000000000000017725)"><g clip-path="url(#b3d9a774e2)"><g clip-path="url(#5322a9cd21)"><g clip-path="url(#7ce8abd67d)"><path fill="#000000" d="M 0 0 L 207.203125 0 L 207.203125 207.203125 L 0 207.203125 Z M 0 0 " fill-opacity="1" fill-rule="nonzero"/></g></g></g></g></g></g><g clip-path="url(#d8ead1857d)"><g clip-path="url(#edfdbee6e8)"><g transform="matrix(1, 0, 0, 1, 17, 17)"><g clip-path="url(#13315974bd)"><g clip-path="url(#b66524962c)"><g clip-path="url(#dda031ef47)"><path fill="#ffffff" d="M 0.0507812 0.0507812 L 173.152344 0.0507812 L 173.152344 173.152344 L 0.0507812 173.152344 Z M 0.0507812 0.0507812 " fill-opacity="1" fill-rule="nonzero"/></g></g></g></g></g></g></g></g></g></svg>